ISO-10303-21;
HEADER;
/* Generated by software containing ST-Developer
 * from STEP Tools, Inc. (www.steptools.com) 
 */

FILE_DESCRIPTION(
/* description */ (''),
/* implementation_level */ '2;1');

FILE_NAME(
/* name */ 'RFID mini.stp',
/* time_stamp */ '2026-08-27T10:13:56+02:00',
/* author */ ('vladimir.gutesa'),
/* organization */ (''),
/* preprocessor_version */ 'ST-DEVELOPER v20.1',
/* originating_system */ 'Autodesk Inventor 2026',
/* authorisation */ '');

FILE_SCHEMA (('AUTOMOTIVE_DESIGN { 1 0 10303 214 3 1 1 }'));
ENDSEC;

DATA;
#10=MECHANICAL_DESIGN_GEOMETRIC_PRESENTATION_REPRESENTATION('',(#13),#1022);
#11=SHAPE_REPRESENTATION_RELATIONSHIP('SRR','None',#1029,#12);
#12=ADVANCED_BREP_SHAPE_REPRESENTATION('',(#14),#1021);
#13=STYLED_ITEM('',(#1038),#14);
#14=MANIFOLD_SOLID_BREP('Solid1',#609);
#15=FACE_BOUND('',#146,.T.);
#16=FACE_BOUND('',#147,.T.);
#17=FACE_BOUND('',#148,.T.);
#18=FACE_BOUND('',#149,.T.);
#19=FACE_BOUND('',#150,.T.);
#20=FACE_BOUND('',#151,.T.);
#21=FACE_BOUND('',#152,.T.);
#22=FACE_BOUND('',#153,.T.);
#23=FACE_BOUND('',#154,.T.);
#24=FACE_BOUND('',#155,.T.);
#25=FACE_BOUND('',#156,.T.);
#26=FACE_BOUND('',#157,.T.);
#27=FACE_BOUND('',#158,.T.);
#28=FACE_BOUND('',#159,.T.);
#29=FACE_BOUND('',#160,.T.);
#30=FACE_BOUND('',#161,.T.);
#31=FACE_BOUND('',#163,.T.);
#32=FACE_BOUND('',#164,.T.);
#33=FACE_BOUND('',#165,.T.);
#34=FACE_BOUND('',#166,.T.);
#35=FACE_BOUND('',#167,.T.);
#36=FACE_BOUND('',#168,.T.);
#37=FACE_BOUND('',#169,.T.);
#38=FACE_BOUND('',#170,.T.);
#39=FACE_BOUND('',#171,.T.);
#40=FACE_BOUND('',#172,.T.);
#41=FACE_BOUND('',#173,.T.);
#42=FACE_BOUND('',#174,.T.);
#43=FACE_BOUND('',#175,.T.);
#44=FACE_BOUND('',#176,.T.);
#45=CIRCLE('',#643,1.66517486727992);
#46=CIRCLE('',#644,1.66517486727992);
#47=CIRCLE('',#646,0.922371095112246);
#48=CIRCLE('',#647,0.922371095112246);
#49=CIRCLE('',#649,0.921946237921359);
#50=CIRCLE('',#650,0.921946237921359);
#51=CIRCLE('',#652,1.13842154173037);
#52=CIRCLE('',#653,1.13842154173037);
#53=CIRCLE('',#655,1.00089070191132);
#54=CIRCLE('',#656,1.00089070191132);
#55=CIRCLE('',#658,1.16377464247723);
#56=CIRCLE('',#659,1.16377464247723);
#57=CIRCLE('',#661,0.912676536361307);
#58=CIRCLE('',#662,0.912676536361307);
#59=CIRCLE('',#664,0.920051820652242);
#60=CIRCLE('',#665,0.920051820652242);
#61=CIRCLE('',#667,0.920510813883706);
#62=CIRCLE('',#668,0.920510813883706);
#63=CIRCLE('',#670,0.920510813883695);
#64=CIRCLE('',#671,0.920510813883695);
#65=CIRCLE('',#673,0.920798077704836);
#66=CIRCLE('',#674,0.920798077704836);
#67=CIRCLE('',#676,0.922031225020924);
#68=CIRCLE('',#677,0.922031225020924);
#69=CIRCLE('',#679,1.55696014555262);
#70=CIRCLE('',#680,1.55696014555262);
#71=CIRCLE('',#682,1.709375740409);
#72=CIRCLE('',#683,1.709375740409);
#73=CYLINDRICAL_SURFACE('',#642,1.66517486727992);
#74=CYLINDRICAL_SURFACE('',#645,0.922371095112246);
#75=CYLINDRICAL_SURFACE('',#648,0.921946237921359);
#76=CYLINDRICAL_SURFACE('',#651,1.13842154173037);
#77=CYLINDRICAL_SURFACE('',#654,1.00089070191132);
#78=CYLINDRICAL_SURFACE('',#657,1.16377464247723);
#79=CYLINDRICAL_SURFACE('',#660,0.912676536361307);
#80=CYLINDRICAL_SURFACE('',#663,0.920051820652242);
#81=CYLINDRICAL_SURFACE('',#666,0.920510813883706);
#82=CYLINDRICAL_SURFACE('',#669,0.920510813883695);
#83=CYLINDRICAL_SURFACE('',#672,0.920798077704836);
#84=CYLINDRICAL_SURFACE('',#675,0.922031225020924);
#85=CYLINDRICAL_SURFACE('',#678,1.55696014555262);
#86=CYLINDRICAL_SURFACE('',#681,1.709375740409);
#87=FACE_OUTER_BOUND('',#117,.T.);
#88=FACE_OUTER_BOUND('',#118,.T.);
#89=FACE_OUTER_BOUND('',#119,.T.);
#90=FACE_OUTER_BOUND('',#120,.T.);
#91=FACE_OUTER_BOUND('',#121,.T.);
#92=FACE_OUTER_BOUND('',#122,.T.);
#93=FACE_OUTER_BOUND('',#123,.T.);
#94=FACE_OUTER_BOUND('',#124,.T.);
#95=FACE_OUTER_BOUND('',#125,.T.);
#96=FACE_OUTER_BOUND('',#126,.T.);
#97=FACE_OUTER_BOUND('',#127,.T.);
#98=FACE_OUTER_BOUND('',#128,.T.);
#99=FACE_OUTER_BOUND('',#129,.T.);
#100=FACE_OUTER_BOUND('',#130,.T.);
#101=FACE_OUTER_BOUND('',#131,.T.);
#102=FACE_OUTER_BOUND('',#132,.T.);
#103=FACE_OUTER_BOUND('',#133,.T.);
#104=FACE_OUTER_BOUND('',#134,.T.);
#105=FACE_OUTER_BOUND('',#135,.T.);
#106=FACE_OUTER_BOUND('',#136,.T.);
#107=FACE_OUTER_BOUND('',#137,.T.);
#108=FACE_OUTER_BOUND('',#138,.T.);
#109=FACE_OUTER_BOUND('',#139,.T.);
#110=FACE_OUTER_BOUND('',#140,.T.);
#111=FACE_OUTER_BOUND('',#141,.T.);
#112=FACE_OUTER_BOUND('',#142,.T.);
#113=FACE_OUTER_BOUND('',#143,.T.);
#114=FACE_OUTER_BOUND('',#144,.T.);
#115=FACE_OUTER_BOUND('',#145,.T.);
#116=FACE_OUTER_BOUND('',#162,.T.);
#117=EDGE_LOOP('',(#407,#408,#409,#410));
#118=EDGE_LOOP('',(#411,#412,#413,#414));
#119=EDGE_LOOP('',(#415,#416,#417,#418));
#120=EDGE_LOOP('',(#419,#420,#421,#422));
#121=EDGE_LOOP('',(#423,#424,#425,#426));
#122=EDGE_LOOP('',(#427,#428,#429,#430));
#123=EDGE_LOOP('',(#431,#432,#433,#434));
#124=EDGE_LOOP('',(#435,#436,#437,#438));
#125=EDGE_LOOP('',(#439,#440,#441,#442));
#126=EDGE_LOOP('',(#443,#444,#445,#446));
#127=EDGE_LOOP('',(#447,#448,#449,#450));
#128=EDGE_LOOP('',(#451,#452,#453,#454));
#129=EDGE_LOOP('',(#455,#456,#457,#458));
#130=EDGE_LOOP('',(#459,#460,#461,#462));
#131=EDGE_LOOP('',(#463,#464,#465,#466));
#132=EDGE_LOOP('',(#467,#468,#469,#470));
#133=EDGE_LOOP('',(#471,#472,#473,#474));
#134=EDGE_LOOP('',(#475,#476,#477,#478));
#135=EDGE_LOOP('',(#479,#480,#481,#482));
#136=EDGE_LOOP('',(#483,#484,#485,#486));
#137=EDGE_LOOP('',(#487,#488,#489,#490));
#138=EDGE_LOOP('',(#491,#492,#493,#494));
#139=EDGE_LOOP('',(#495,#496,#497,#498));
#140=EDGE_LOOP('',(#499,#500,#501,#502));
#141=EDGE_LOOP('',(#503,#504,#505,#506));
#142=EDGE_LOOP('',(#507,#508,#509,#510));
#143=EDGE_LOOP('',(#511,#512,#513,#514));
#144=EDGE_LOOP('',(#515,#516,#517,#518));
#145=EDGE_LOOP('',(#519,#520,#521,#522));
#146=EDGE_LOOP('',(#523,#524,#525,#526));
#147=EDGE_LOOP('',(#527,#528,#529,#530));
#148=EDGE_LOOP('',(#531));
#149=EDGE_LOOP('',(#532));
#150=EDGE_LOOP('',(#533));
#151=EDGE_LOOP('',(#534));
#152=EDGE_LOOP('',(#535));
#153=EDGE_LOOP('',(#536));
#154=EDGE_LOOP('',(#537));
#155=EDGE_LOOP('',(#538));
#156=EDGE_LOOP('',(#539));
#157=EDGE_LOOP('',(#540));
#158=EDGE_LOOP('',(#541));
#159=EDGE_LOOP('',(#542));
#160=EDGE_LOOP('',(#543));
#161=EDGE_LOOP('',(#544));
#162=EDGE_LOOP('',(#545,#546,#547,#548));
#163=EDGE_LOOP('',(#549));
#164=EDGE_LOOP('',(#550));
#165=EDGE_LOOP('',(#551));
#166=EDGE_LOOP('',(#552));
#167=EDGE_LOOP('',(#553));
#168=EDGE_LOOP('',(#554));
#169=EDGE_LOOP('',(#555));
#170=EDGE_LOOP('',(#556));
#171=EDGE_LOOP('',(#557));
#172=EDGE_LOOP('',(#558));
#173=EDGE_LOOP('',(#559));
#174=EDGE_LOOP('',(#560));
#175=EDGE_LOOP('',(#561));
#176=EDGE_LOOP('',(#562));
#177=LINE('',#862,#227);
#178=LINE('',#864,#228);
#179=LINE('',#866,#229);
#180=LINE('',#867,#230);
#181=LINE('',#870,#231);
#182=LINE('',#872,#232);
#183=LINE('',#873,#233);
#184=LINE('',#876,#234);
#185=LINE('',#878,#235);
#186=LINE('',#879,#236);
#187=LINE('',#881,#237);
#188=LINE('',#882,#238);
#189=LINE('',#887,#239);
#190=LINE('',#889,#240);
#191=LINE('',#891,#241);
#192=LINE('',#892,#242);
#193=LINE('',#895,#243);
#194=LINE('',#897,#244);
#195=LINE('',#898,#245);
#196=LINE('',#901,#246);
#197=LINE('',#903,#247);
#198=LINE('',#904,#248);
#199=LINE('',#906,#249);
#200=LINE('',#907,#250);
#201=LINE('',#913,#251);
#202=LINE('',#919,#252);
#203=LINE('',#925,#253);
#204=LINE('',#931,#254);
#205=LINE('',#937,#255);
#206=LINE('',#943,#256);
#207=LINE('',#949,#257);
#208=LINE('',#955,#258);
#209=LINE('',#961,#259);
#210=LINE('',#967,#260);
#211=LINE('',#973,#261);
#212=LINE('',#979,#262);
#213=LINE('',#985,#263);
#214=LINE('',#991,#264);
#215=LINE('',#996,#265);
#216=LINE('',#998,#266);
#217=LINE('',#1000,#267);
#218=LINE('',#1001,#268);
#219=LINE('',#1004,#269);
#220=LINE('',#1006,#270);
#221=LINE('',#1007,#271);
#222=LINE('',#1010,#272);
#223=LINE('',#1012,#273);
#224=LINE('',#1013,#274);
#225=LINE('',#1015,#275);
#226=LINE('',#1016,#276);
#227=VECTOR('',#694,10.);
#228=VECTOR('',#695,10.);
#229=VECTOR('',#696,10.);
#230=VECTOR('',#697,10.);
#231=VECTOR('',#700,10.);
#232=VECTOR('',#701,10.);
#233=VECTOR('',#702,10.);
#234=VECTOR('',#705,10.);
#235=VECTOR('',#706,10.);
#236=VECTOR('',#707,10.);
#237=VECTOR('',#710,10.);
#238=VECTOR('',#711,10.);
#239=VECTOR('',#716,10.);
#240=VECTOR('',#717,10.);
#241=VECTOR('',#718,10.);
#242=VECTOR('',#719,10.);
#243=VECTOR('',#722,10.);
#244=VECTOR('',#723,10.);
#245=VECTOR('',#724,10.);
#246=VECTOR('',#727,10.);
#247=VECTOR('',#728,10.);
#248=VECTOR('',#729,10.);
#249=VECTOR('',#732,10.);
#250=VECTOR('',#733,10.);
#251=VECTOR('',#740,1.66517486727992);
#252=VECTOR('',#747,0.922371095112246);
#253=VECTOR('',#754,0.921946237921359);
#254=VECTOR('',#761,1.13842154173037);
#255=VECTOR('',#768,1.00089070191132);
#256=VECTOR('',#775,1.16377464247723);
#257=VECTOR('',#782,0.912676536361307);
#258=VECTOR('',#789,0.920051820652242);
#259=VECTOR('',#796,0.920510813883706);
#260=VECTOR('',#803,0.920510813883695);
#261=VECTOR('',#810,0.920798077704836);
#262=VECTOR('',#817,0.922031225020924);
#263=VECTOR('',#824,1.55696014555262);
#264=VECTOR('',#831,1.709375740409);
#265=VECTOR('',#836,10.);
#266=VECTOR('',#837,10.);
#267=VECTOR('',#838,10.);
#268=VECTOR('',#839,10.);
#269=VECTOR('',#842,10.);
#270=VECTOR('',#843,10.);
#271=VECTOR('',#844,10.);
#272=VECTOR('',#847,10.);
#273=VECTOR('',#848,10.);
#274=VECTOR('',#849,10.);
#275=VECTOR('',#852,10.);
#276=VECTOR('',#853,10.);
#277=VERTEX_POINT('',#860);
#278=VERTEX_POINT('',#861);
#279=VERTEX_POINT('',#863);
#280=VERTEX_POINT('',#865);
#281=VERTEX_POINT('',#869);
#282=VERTEX_POINT('',#871);
#283=VERTEX_POINT('',#875);
#284=VERTEX_POINT('',#877);
#285=VERTEX_POINT('',#885);
#286=VERTEX_POINT('',#886);
#287=VERTEX_POINT('',#888);
#288=VERTEX_POINT('',#890);
#289=VERTEX_POINT('',#894);
#290=VERTEX_POINT('',#896);
#291=VERTEX_POINT('',#900);
#292=VERTEX_POINT('',#902);
#293=VERTEX_POINT('',#910);
#294=VERTEX_POINT('',#912);
#295=VERTEX_POINT('',#916);
#296=VERTEX_POINT('',#918);
#297=VERTEX_POINT('',#922);
#298=VERTEX_POINT('',#924);
#299=VERTEX_POINT('',#928);
#300=VERTEX_POINT('',#930);
#301=VERTEX_POINT('',#934);
#302=VERTEX_POINT('',#936);
#303=VERTEX_POINT('',#940);
#304=VERTEX_POINT('',#942);
#305=VERTEX_POINT('',#946);
#306=VERTEX_POINT('',#948);
#307=VERTEX_POINT('',#952);
#308=VERTEX_POINT('',#954);
#309=VERTEX_POINT('',#958);
#310=VERTEX_POINT('',#960);
#311=VERTEX_POINT('',#964);
#312=VERTEX_POINT('',#966);
#313=VERTEX_POINT('',#970);
#314=VERTEX_POINT('',#972);
#315=VERTEX_POINT('',#976);
#316=VERTEX_POINT('',#978);
#317=VERTEX_POINT('',#982);
#318=VERTEX_POINT('',#984);
#319=VERTEX_POINT('',#988);
#320=VERTEX_POINT('',#990);
#321=VERTEX_POINT('',#994);
#322=VERTEX_POINT('',#995);
#323=VERTEX_POINT('',#997);
#324=VERTEX_POINT('',#999);
#325=VERTEX_POINT('',#1003);
#326=VERTEX_POINT('',#1005);
#327=VERTEX_POINT('',#1009);
#328=VERTEX_POINT('',#1011);
#329=EDGE_CURVE('',#277,#278,#177,.T.);
#330=EDGE_CURVE('',#277,#279,#178,.T.);
#331=EDGE_CURVE('',#280,#279,#179,.T.);
#332=EDGE_CURVE('',#278,#280,#180,.T.);
#333=EDGE_CURVE('',#278,#281,#181,.T.);
#334=EDGE_CURVE('',#282,#280,#182,.T.);
#335=EDGE_CURVE('',#281,#282,#183,.T.);
#336=EDGE_CURVE('',#281,#283,#184,.T.);
#337=EDGE_CURVE('',#284,#282,#185,.T.);
#338=EDGE_CURVE('',#283,#284,#186,.T.);
#339=EDGE_CURVE('',#283,#277,#187,.T.);
#340=EDGE_CURVE('',#279,#284,#188,.T.);
#341=EDGE_CURVE('',#285,#286,#189,.T.);
#342=EDGE_CURVE('',#285,#287,#190,.T.);
#343=EDGE_CURVE('',#288,#287,#191,.T.);
#344=EDGE_CURVE('',#286,#288,#192,.T.);
#345=EDGE_CURVE('',#286,#289,#193,.T.);
#346=EDGE_CURVE('',#290,#288,#194,.T.);
#347=EDGE_CURVE('',#289,#290,#195,.T.);
#348=EDGE_CURVE('',#289,#291,#196,.T.);
#349=EDGE_CURVE('',#292,#290,#197,.T.);
#350=EDGE_CURVE('',#291,#292,#198,.T.);
#351=EDGE_CURVE('',#291,#285,#199,.T.);
#352=EDGE_CURVE('',#287,#292,#200,.T.);
#353=EDGE_CURVE('',#293,#293,#45,.T.);
#354=EDGE_CURVE('',#293,#294,#201,.T.);
#355=EDGE_CURVE('',#294,#294,#46,.T.);
#356=EDGE_CURVE('',#295,#295,#47,.T.);
#357=EDGE_CURVE('',#295,#296,#202,.T.);
#358=EDGE_CURVE('',#296,#296,#48,.T.);
#359=EDGE_CURVE('',#297,#297,#49,.T.);
#360=EDGE_CURVE('',#297,#298,#203,.T.);
#361=EDGE_CURVE('',#298,#298,#50,.T.);
#362=EDGE_CURVE('',#299,#299,#51,.T.);
#363=EDGE_CURVE('',#299,#300,#204,.T.);
#364=EDGE_CURVE('',#300,#300,#52,.T.);
#365=EDGE_CURVE('',#301,#301,#53,.T.);
#366=EDGE_CURVE('',#301,#302,#205,.T.);
#367=EDGE_CURVE('',#302,#302,#54,.T.);
#368=EDGE_CURVE('',#303,#303,#55,.T.);
#369=EDGE_CURVE('',#303,#304,#206,.T.);
#370=EDGE_CURVE('',#304,#304,#56,.T.);
#371=EDGE_CURVE('',#305,#305,#57,.T.);
#372=EDGE_CURVE('',#305,#306,#207,.T.);
#373=EDGE_CURVE('',#306,#306,#58,.T.);
#374=EDGE_CURVE('',#307,#307,#59,.T.);
#375=EDGE_CURVE('',#307,#308,#208,.T.);
#376=EDGE_CURVE('',#308,#308,#60,.T.);
#377=EDGE_CURVE('',#309,#309,#61,.T.);
#378=EDGE_CURVE('',#309,#310,#209,.T.);
#379=EDGE_CURVE('',#310,#310,#62,.T.);
#380=EDGE_CURVE('',#311,#311,#63,.T.);
#381=EDGE_CURVE('',#311,#312,#210,.T.);
#382=EDGE_CURVE('',#312,#312,#64,.T.);
#383=EDGE_CURVE('',#313,#313,#65,.T.);
#384=EDGE_CURVE('',#313,#314,#211,.T.);
#385=EDGE_CURVE('',#314,#314,#66,.T.);
#386=EDGE_CURVE('',#315,#315,#67,.T.);
#387=EDGE_CURVE('',#315,#316,#212,.T.);
#388=EDGE_CURVE('',#316,#316,#68,.T.);
#389=EDGE_CURVE('',#317,#317,#69,.T.);
#390=EDGE_CURVE('',#317,#318,#213,.T.);
#391=EDGE_CURVE('',#318,#318,#70,.T.);
#392=EDGE_CURVE('',#319,#319,#71,.T.);
#393=EDGE_CURVE('',#319,#320,#214,.T.);
#394=EDGE_CURVE('',#320,#320,#72,.T.);
#395=EDGE_CURVE('',#321,#322,#215,.T.);
#396=EDGE_CURVE('',#322,#323,#216,.T.);
#397=EDGE_CURVE('',#324,#323,#217,.T.);
#398=EDGE_CURVE('',#321,#324,#218,.T.);
#399=EDGE_CURVE('',#325,#321,#219,.T.);
#400=EDGE_CURVE('',#326,#324,#220,.T.);
#401=EDGE_CURVE('',#325,#326,#221,.T.);
#402=EDGE_CURVE('',#327,#325,#222,.T.);
#403=EDGE_CURVE('',#328,#326,#223,.T.);
#404=EDGE_CURVE('',#327,#328,#224,.T.);
#405=EDGE_CURVE('',#322,#327,#225,.T.);
#406=EDGE_CURVE('',#323,#328,#226,.T.);
#407=ORIENTED_EDGE('',*,*,#329,.F.);
#408=ORIENTED_EDGE('',*,*,#330,.T.);
#409=ORIENTED_EDGE('',*,*,#331,.F.);
#410=ORIENTED_EDGE('',*,*,#332,.F.);
#411=ORIENTED_EDGE('',*,*,#333,.F.);
#412=ORIENTED_EDGE('',*,*,#332,.T.);
#413=ORIENTED_EDGE('',*,*,#334,.F.);
#414=ORIENTED_EDGE('',*,*,#335,.F.);
#415=ORIENTED_EDGE('',*,*,#336,.F.);
#416=ORIENTED_EDGE('',*,*,#335,.T.);
#417=ORIENTED_EDGE('',*,*,#337,.F.);
#418=ORIENTED_EDGE('',*,*,#338,.F.);
#419=ORIENTED_EDGE('',*,*,#339,.F.);
#420=ORIENTED_EDGE('',*,*,#338,.T.);
#421=ORIENTED_EDGE('',*,*,#340,.F.);
#422=ORIENTED_EDGE('',*,*,#330,.F.);
#423=ORIENTED_EDGE('',*,*,#340,.T.);
#424=ORIENTED_EDGE('',*,*,#337,.T.);
#425=ORIENTED_EDGE('',*,*,#334,.T.);
#426=ORIENTED_EDGE('',*,*,#331,.T.);
#427=ORIENTED_EDGE('',*,*,#341,.F.);
#428=ORIENTED_EDGE('',*,*,#342,.T.);
#429=ORIENTED_EDGE('',*,*,#343,.F.);
#430=ORIENTED_EDGE('',*,*,#344,.F.);
#431=ORIENTED_EDGE('',*,*,#345,.F.);
#432=ORIENTED_EDGE('',*,*,#344,.T.);
#433=ORIENTED_EDGE('',*,*,#346,.F.);
#434=ORIENTED_EDGE('',*,*,#347,.F.);
#435=ORIENTED_EDGE('',*,*,#348,.F.);
#436=ORIENTED_EDGE('',*,*,#347,.T.);
#437=ORIENTED_EDGE('',*,*,#349,.F.);
#438=ORIENTED_EDGE('',*,*,#350,.F.);
#439=ORIENTED_EDGE('',*,*,#351,.F.);
#440=ORIENTED_EDGE('',*,*,#350,.T.);
#441=ORIENTED_EDGE('',*,*,#352,.F.);
#442=ORIENTED_EDGE('',*,*,#342,.F.);
#443=ORIENTED_EDGE('',*,*,#352,.T.);
#444=ORIENTED_EDGE('',*,*,#349,.T.);
#445=ORIENTED_EDGE('',*,*,#346,.T.);
#446=ORIENTED_EDGE('',*,*,#343,.T.);
#447=ORIENTED_EDGE('',*,*,#353,.F.);
#448=ORIENTED_EDGE('',*,*,#354,.T.);
#449=ORIENTED_EDGE('',*,*,#355,.T.);
#450=ORIENTED_EDGE('',*,*,#354,.F.);
#451=ORIENTED_EDGE('',*,*,#356,.F.);
#452=ORIENTED_EDGE('',*,*,#357,.T.);
#453=ORIENTED_EDGE('',*,*,#358,.T.);
#454=ORIENTED_EDGE('',*,*,#357,.F.);
#455=ORIENTED_EDGE('',*,*,#359,.F.);
#456=ORIENTED_EDGE('',*,*,#360,.T.);
#457=ORIENTED_EDGE('',*,*,#361,.T.);
#458=ORIENTED_EDGE('',*,*,#360,.F.);
#459=ORIENTED_EDGE('',*,*,#362,.F.);
#460=ORIENTED_EDGE('',*,*,#363,.T.);
#461=ORIENTED_EDGE('',*,*,#364,.T.);
#462=ORIENTED_EDGE('',*,*,#363,.F.);
#463=ORIENTED_EDGE('',*,*,#365,.F.);
#464=ORIENTED_EDGE('',*,*,#366,.T.);
#465=ORIENTED_EDGE('',*,*,#367,.T.);
#466=ORIENTED_EDGE('',*,*,#366,.F.);
#467=ORIENTED_EDGE('',*,*,#368,.F.);
#468=ORIENTED_EDGE('',*,*,#369,.T.);
#469=ORIENTED_EDGE('',*,*,#370,.T.);
#470=ORIENTED_EDGE('',*,*,#369,.F.);
#471=ORIENTED_EDGE('',*,*,#371,.F.);
#472=ORIENTED_EDGE('',*,*,#372,.T.);
#473=ORIENTED_EDGE('',*,*,#373,.T.);
#474=ORIENTED_EDGE('',*,*,#372,.F.);
#475=ORIENTED_EDGE('',*,*,#374,.F.);
#476=ORIENTED_EDGE('',*,*,#375,.T.);
#477=ORIENTED_EDGE('',*,*,#376,.T.);
#478=ORIENTED_EDGE('',*,*,#375,.F.);
#479=ORIENTED_EDGE('',*,*,#377,.F.);
#480=ORIENTED_EDGE('',*,*,#378,.T.);
#481=ORIENTED_EDGE('',*,*,#379,.T.);
#482=ORIENTED_EDGE('',*,*,#378,.F.);
#483=ORIENTED_EDGE('',*,*,#380,.F.);
#484=ORIENTED_EDGE('',*,*,#381,.T.);
#485=ORIENTED_EDGE('',*,*,#382,.T.);
#486=ORIENTED_EDGE('',*,*,#381,.F.);
#487=ORIENTED_EDGE('',*,*,#383,.F.);
#488=ORIENTED_EDGE('',*,*,#384,.T.);
#489=ORIENTED_EDGE('',*,*,#385,.T.);
#490=ORIENTED_EDGE('',*,*,#384,.F.);
#491=ORIENTED_EDGE('',*,*,#386,.F.);
#492=ORIENTED_EDGE('',*,*,#387,.T.);
#493=ORIENTED_EDGE('',*,*,#388,.T.);
#494=ORIENTED_EDGE('',*,*,#387,.F.);
#495=ORIENTED_EDGE('',*,*,#389,.F.);
#496=ORIENTED_EDGE('',*,*,#390,.T.);
#497=ORIENTED_EDGE('',*,*,#391,.T.);
#498=ORIENTED_EDGE('',*,*,#390,.F.);
#499=ORIENTED_EDGE('',*,*,#392,.F.);
#500=ORIENTED_EDGE('',*,*,#393,.T.);
#501=ORIENTED_EDGE('',*,*,#394,.T.);
#502=ORIENTED_EDGE('',*,*,#393,.F.);
#503=ORIENTED_EDGE('',*,*,#395,.T.);
#504=ORIENTED_EDGE('',*,*,#396,.T.);
#505=ORIENTED_EDGE('',*,*,#397,.F.);
#506=ORIENTED_EDGE('',*,*,#398,.F.);
#507=ORIENTED_EDGE('',*,*,#399,.T.);
#508=ORIENTED_EDGE('',*,*,#398,.T.);
#509=ORIENTED_EDGE('',*,*,#400,.F.);
#510=ORIENTED_EDGE('',*,*,#401,.F.);
#511=ORIENTED_EDGE('',*,*,#402,.T.);
#512=ORIENTED_EDGE('',*,*,#401,.T.);
#513=ORIENTED_EDGE('',*,*,#403,.F.);
#514=ORIENTED_EDGE('',*,*,#404,.F.);
#515=ORIENTED_EDGE('',*,*,#405,.T.);
#516=ORIENTED_EDGE('',*,*,#404,.T.);
#517=ORIENTED_EDGE('',*,*,#406,.F.);
#518=ORIENTED_EDGE('',*,*,#396,.F.);
#519=ORIENTED_EDGE('',*,*,#406,.T.);
#520=ORIENTED_EDGE('',*,*,#403,.T.);
#521=ORIENTED_EDGE('',*,*,#400,.T.);
#522=ORIENTED_EDGE('',*,*,#397,.T.);
#523=ORIENTED_EDGE('',*,*,#329,.T.);
#524=ORIENTED_EDGE('',*,*,#333,.T.);
#525=ORIENTED_EDGE('',*,*,#336,.T.);
#526=ORIENTED_EDGE('',*,*,#339,.T.);
#527=ORIENTED_EDGE('',*,*,#341,.T.);
#528=ORIENTED_EDGE('',*,*,#345,.T.);
#529=ORIENTED_EDGE('',*,*,#348,.T.);
#530=ORIENTED_EDGE('',*,*,#351,.T.);
#531=ORIENTED_EDGE('',*,*,#392,.T.);
#532=ORIENTED_EDGE('',*,*,#389,.T.);
#533=ORIENTED_EDGE('',*,*,#386,.T.);
#534=ORIENTED_EDGE('',*,*,#383,.T.);
#535=ORIENTED_EDGE('',*,*,#380,.T.);
#536=ORIENTED_EDGE('',*,*,#377,.T.);
#537=ORIENTED_EDGE('',*,*,#374,.T.);
#538=ORIENTED_EDGE('',*,*,#371,.T.);
#539=ORIENTED_EDGE('',*,*,#368,.T.);
#540=ORIENTED_EDGE('',*,*,#365,.T.);
#541=ORIENTED_EDGE('',*,*,#362,.T.);
#542=ORIENTED_EDGE('',*,*,#359,.T.);
#543=ORIENTED_EDGE('',*,*,#356,.T.);
#544=ORIENTED_EDGE('',*,*,#353,.T.);
#545=ORIENTED_EDGE('',*,*,#405,.F.);
#546=ORIENTED_EDGE('',*,*,#395,.F.);
#547=ORIENTED_EDGE('',*,*,#399,.F.);
#548=ORIENTED_EDGE('',*,*,#402,.F.);
#549=ORIENTED_EDGE('',*,*,#394,.F.);
#550=ORIENTED_EDGE('',*,*,#391,.F.);
#551=ORIENTED_EDGE('',*,*,#388,.F.);
#552=ORIENTED_EDGE('',*,*,#385,.F.);
#553=ORIENTED_EDGE('',*,*,#382,.F.);
#554=ORIENTED_EDGE('',*,*,#379,.F.);
#555=ORIENTED_EDGE('',*,*,#376,.F.);
#556=ORIENTED_EDGE('',*,*,#373,.F.);
#557=ORIENTED_EDGE('',*,*,#370,.F.);
#558=ORIENTED_EDGE('',*,*,#367,.F.);
#559=ORIENTED_EDGE('',*,*,#364,.F.);
#560=ORIENTED_EDGE('',*,*,#361,.F.);
#561=ORIENTED_EDGE('',*,*,#358,.F.);
#562=ORIENTED_EDGE('',*,*,#355,.F.);
#563=PLANE('',#632);
#564=PLANE('',#633);
#565=PLANE('',#634);
#566=PLANE('',#635);
#567=PLANE('',#636);
#568=PLANE('',#637);
#569=PLANE('',#638);
#570=PLANE('',#639);
#571=PLANE('',#640);
#572=PLANE('',#641);
#573=PLANE('',#684);
#574=PLANE('',#685);
#575=PLANE('',#686);
#576=PLANE('',#687);
#577=PLANE('',#688);
#578=PLANE('',#689);
#579=ADVANCED_FACE('',(#87),#563,.T.);
#580=ADVANCED_FACE('',(#88),#564,.T.);
#581=ADVANCED_FACE('',(#89),#565,.T.);
#582=ADVANCED_FACE('',(#90),#566,.T.);
#583=ADVANCED_FACE('',(#91),#567,.T.);
#584=ADVANCED_FACE('',(#92),#568,.T.);
#585=ADVANCED_FACE('',(#93),#569,.T.);
#586=ADVANCED_FACE('',(#94),#570,.T.);
#587=ADVANCED_FACE('',(#95),#571,.T.);
#588=ADVANCED_FACE('',(#96),#572,.T.);
#589=ADVANCED_FACE('',(#97),#73,.F.);
#590=ADVANCED_FACE('',(#98),#74,.F.);
#591=ADVANCED_FACE('',(#99),#75,.F.);
#592=ADVANCED_FACE('',(#100),#76,.F.);
#593=ADVANCED_FACE('',(#101),#77,.F.);
#594=ADVANCED_FACE('',(#102),#78,.F.);
#595=ADVANCED_FACE('',(#103),#79,.F.);
#596=ADVANCED_FACE('',(#104),#80,.F.);
#597=ADVANCED_FACE('',(#105),#81,.F.);
#598=ADVANCED_FACE('',(#106),#82,.F.);
#599=ADVANCED_FACE('',(#107),#83,.F.);
#600=ADVANCED_FACE('',(#108),#84,.F.);
#601=ADVANCED_FACE('',(#109),#85,.F.);
#602=ADVANCED_FACE('',(#110),#86,.F.);
#603=ADVANCED_FACE('',(#111),#573,.T.);
#604=ADVANCED_FACE('',(#112),#574,.T.);
#605=ADVANCED_FACE('',(#113),#575,.T.);
#606=ADVANCED_FACE('',(#114),#576,.T.);
#607=ADVANCED_FACE('',(#115,#15,#16,#17,#18,#19,#20,#21,#22,#23,#24,#25,
#26,#27,#28,#29,#30),#577,.T.);
#608=ADVANCED_FACE('',(#116,#31,#32,#33,#34,#35,#36,#37,#38,#39,#40,#41,
#42,#43,#44),#578,.F.);
#609=CLOSED_SHELL('',(#579,#580,#581,#582,#583,#584,#585,#586,#587,#588,
#589,#590,#591,#592,#593,#594,#595,#596,#597,#598,#599,#600,#601,#602,#603,
#604,#605,#606,#607,#608));
#610=DERIVED_UNIT_ELEMENT(#613,1.);
#611=DERIVED_UNIT_ELEMENT(#1024,-3.);
#612=DIMENSIONAL_EXPONENTS(0.,1.,0.,0.,0.,0.,0.);
#613=(
CONVERSION_BASED_UNIT('gram',#615)
MASS_UNIT()
NAMED_UNIT(#612)
);
#614=(
MASS_UNIT()
NAMED_UNIT(*)
SI_UNIT(.KILO.,.GRAM.)
);
#615=MASS_MEASURE_WITH_UNIT(MASS_MEASURE(0.001),#614);
#616=DERIVED_UNIT((#610,#611));
#617=MEASURE_REPRESENTATION_ITEM('density measure',
POSITIVE_RATIO_MEASURE(1.),#616);
#618=PROPERTY_DEFINITION_REPRESENTATION(#623,#620);
#619=PROPERTY_DEFINITION_REPRESENTATION(#624,#621);
#620=REPRESENTATION('material name',(#622),#1021);
#621=REPRESENTATION('density',(#617),#1021);
#622=DESCRIPTIVE_REPRESENTATION_ITEM('Generic','Generic');
#623=PROPERTY_DEFINITION('material property','material name',#1031);
#624=PROPERTY_DEFINITION('material property','density of part',#1031);
#625=DATE_TIME_ROLE('creation_date');
#626=APPLIED_DATE_AND_TIME_ASSIGNMENT(#627,#625,(#1031));
#627=DATE_AND_TIME(#628,#629);
#628=CALENDAR_DATE(2026,27,8);
#629=LOCAL_TIME(0,0,0.,#630);
#630=COORDINATED_UNIVERSAL_TIME_OFFSET(0,0,.BEHIND.);
#631=AXIS2_PLACEMENT_3D('',#858,#690,#691);
#632=AXIS2_PLACEMENT_3D('',#859,#692,#693);
#633=AXIS2_PLACEMENT_3D('',#868,#698,#699);
#634=AXIS2_PLACEMENT_3D('',#874,#703,#704);
#635=AXIS2_PLACEMENT_3D('',#880,#708,#709);
#636=AXIS2_PLACEMENT_3D('',#883,#712,#713);
#637=AXIS2_PLACEMENT_3D('',#884,#714,#715);
#638=AXIS2_PLACEMENT_3D('',#893,#720,#721);
#639=AXIS2_PLACEMENT_3D('',#899,#725,#726);
#640=AXIS2_PLACEMENT_3D('',#905,#730,#731);
#641=AXIS2_PLACEMENT_3D('',#908,#734,#735);
#642=AXIS2_PLACEMENT_3D('',#909,#736,#737);
#643=AXIS2_PLACEMENT_3D('',#911,#738,#739);
#644=AXIS2_PLACEMENT_3D('',#914,#741,#742);
#645=AXIS2_PLACEMENT_3D('',#915,#743,#744);
#646=AXIS2_PLACEMENT_3D('',#917,#745,#746);
#647=AXIS2_PLACEMENT_3D('',#920,#748,#749);
#648=AXIS2_PLACEMENT_3D('',#921,#750,#751);
#649=AXIS2_PLACEMENT_3D('',#923,#752,#753);
#650=AXIS2_PLACEMENT_3D('',#926,#755,#756);
#651=AXIS2_PLACEMENT_3D('',#927,#757,#758);
#652=AXIS2_PLACEMENT_3D('',#929,#759,#760);
#653=AXIS2_PLACEMENT_3D('',#932,#762,#763);
#654=AXIS2_PLACEMENT_3D('',#933,#764,#765);
#655=AXIS2_PLACEMENT_3D('',#935,#766,#767);
#656=AXIS2_PLACEMENT_3D('',#938,#769,#770);
#657=AXIS2_PLACEMENT_3D('',#939,#771,#772);
#658=AXIS2_PLACEMENT_3D('',#941,#773,#774);
#659=AXIS2_PLACEMENT_3D('',#944,#776,#777);
#660=AXIS2_PLACEMENT_3D('',#945,#778,#779);
#661=AXIS2_PLACEMENT_3D('',#947,#780,#781);
#662=AXIS2_PLACEMENT_3D('',#950,#783,#784);
#663=AXIS2_PLACEMENT_3D('',#951,#785,#786);
#664=AXIS2_PLACEMENT_3D('',#953,#787,#788);
#665=AXIS2_PLACEMENT_3D('',#956,#790,#791);
#666=AXIS2_PLACEMENT_3D('',#957,#792,#793);
#667=AXIS2_PLACEMENT_3D('',#959,#794,#795);
#668=AXIS2_PLACEMENT_3D('',#962,#797,#798);
#669=AXIS2_PLACEMENT_3D('',#963,#799,#800);
#670=AXIS2_PLACEMENT_3D('',#965,#801,#802);
#671=AXIS2_PLACEMENT_3D('',#968,#804,#805);
#672=AXIS2_PLACEMENT_3D('',#969,#806,#807);
#673=AXIS2_PLACEMENT_3D('',#971,#808,#809);
#674=AXIS2_PLACEMENT_3D('',#974,#811,#812);
#675=AXIS2_PLACEMENT_3D('',#975,#813,#814);
#676=AXIS2_PLACEMENT_3D('',#977,#815,#816);
#677=AXIS2_PLACEMENT_3D('',#980,#818,#819);
#678=AXIS2_PLACEMENT_3D('',#981,#820,#821);
#679=AXIS2_PLACEMENT_3D('',#983,#822,#823);
#680=AXIS2_PLACEMENT_3D('',#986,#825,#826);
#681=AXIS2_PLACEMENT_3D('',#987,#827,#828);
#682=AXIS2_PLACEMENT_3D('',#989,#829,#830);
#683=AXIS2_PLACEMENT_3D('',#992,#832,#833);
#684=AXIS2_PLACEMENT_3D('',#993,#834,#835);
#685=AXIS2_PLACEMENT_3D('',#1002,#840,#841);
#686=AXIS2_PLACEMENT_3D('',#1008,#845,#846);
#687=AXIS2_PLACEMENT_3D('',#1014,#850,#851);
#688=AXIS2_PLACEMENT_3D('',#1017,#854,#855);
#689=AXIS2_PLACEMENT_3D('',#1018,#856,#857);
#690=DIRECTION('axis',(0.,0.,1.));
#691=DIRECTION('refdir',(1.,0.,0.));
#692=DIRECTION('center_axis',(-1.,0.,0.));
#693=DIRECTION('ref_axis',(0.,0.,1.));
#694=DIRECTION('',(0.,0.,-1.));
#695=DIRECTION('',(0.,1.,0.));
#696=DIRECTION('',(0.,0.,1.));
#697=DIRECTION('',(0.,1.,0.));
#698=DIRECTION('center_axis',(0.,0.,-1.));
#699=DIRECTION('ref_axis',(-1.,0.,0.));
#700=DIRECTION('',(1.,0.,0.));
#701=DIRECTION('',(-1.,0.,0.));
#702=DIRECTION('',(0.,1.,0.));
#703=DIRECTION('center_axis',(1.,0.,0.));
#704=DIRECTION('ref_axis',(0.,0.,-1.));
#705=DIRECTION('',(0.,0.,1.));
#706=DIRECTION('',(0.,0.,-1.));
#707=DIRECTION('',(0.,1.,0.));
#708=DIRECTION('center_axis',(0.,0.,1.));
#709=DIRECTION('ref_axis',(1.,0.,0.));
#710=DIRECTION('',(-1.,0.,0.));
#711=DIRECTION('',(1.,0.,0.));
#712=DIRECTION('center_axis',(0.,1.,0.));
#713=DIRECTION('ref_axis',(0.,0.,1.));
#714=DIRECTION('center_axis',(-1.,0.,0.));
#715=DIRECTION('ref_axis',(0.,0.,1.));
#716=DIRECTION('',(0.,0.,-1.));
#717=DIRECTION('',(0.,1.,0.));
#718=DIRECTION('',(0.,0.,1.));
#719=DIRECTION('',(0.,1.,0.));
#720=DIRECTION('center_axis',(0.,0.,-1.));
#721=DIRECTION('ref_axis',(-1.,0.,0.));
#722=DIRECTION('',(1.,0.,0.));
#723=DIRECTION('',(-1.,0.,0.));
#724=DIRECTION('',(0.,1.,0.));
#725=DIRECTION('center_axis',(1.,0.,0.));
#726=DIRECTION('ref_axis',(0.,0.,-1.));
#727=DIRECTION('',(0.,0.,1.));
#728=DIRECTION('',(0.,0.,-1.));
#729=DIRECTION('',(0.,1.,0.));
#730=DIRECTION('center_axis',(0.,0.,1.));
#731=DIRECTION('ref_axis',(1.,0.,0.));
#732=DIRECTION('',(-1.,0.,0.));
#733=DIRECTION('',(1.,0.,0.));
#734=DIRECTION('center_axis',(0.,1.,0.));
#735=DIRECTION('ref_axis',(0.,0.,1.));
#736=DIRECTION('center_axis',(0.,1.,0.));
#737=DIRECTION('ref_axis',(1.,0.,0.));
#738=DIRECTION('center_axis',(0.,-1.,0.));
#739=DIRECTION('ref_axis',(1.,0.,0.));
#740=DIRECTION('',(0.,-1.,0.));
#741=DIRECTION('center_axis',(0.,-1.,0.));
#742=DIRECTION('ref_axis',(1.,0.,0.));
#743=DIRECTION('center_axis',(0.,1.,0.));
#744=DIRECTION('ref_axis',(1.,0.,0.));
#745=DIRECTION('center_axis',(0.,-1.,0.));
#746=DIRECTION('ref_axis',(1.,0.,0.));
#747=DIRECTION('',(0.,-1.,0.));
#748=DIRECTION('center_axis',(0.,-1.,0.));
#749=DIRECTION('ref_axis',(1.,0.,0.));
#750=DIRECTION('center_axis',(0.,1.,0.));
#751=DIRECTION('ref_axis',(1.,0.,0.));
#752=DIRECTION('center_axis',(0.,-1.,0.));
#753=DIRECTION('ref_axis',(1.,0.,0.));
#754=DIRECTION('',(0.,-1.,0.));
#755=DIRECTION('center_axis',(0.,-1.,0.));
#756=DIRECTION('ref_axis',(1.,0.,0.));
#757=DIRECTION('center_axis',(0.,1.,0.));
#758=DIRECTION('ref_axis',(1.,0.,0.));
#759=DIRECTION('center_axis',(0.,-1.,0.));
#760=DIRECTION('ref_axis',(1.,0.,0.));
#761=DIRECTION('',(0.,-1.,0.));
#762=DIRECTION('center_axis',(0.,-1.,0.));
#763=DIRECTION('ref_axis',(1.,0.,0.));
#764=DIRECTION('center_axis',(0.,1.,0.));
#765=DIRECTION('ref_axis',(1.,0.,0.));
#766=DIRECTION('center_axis',(0.,-1.,0.));
#767=DIRECTION('ref_axis',(1.,0.,0.));
#768=DIRECTION('',(0.,-1.,0.));
#769=DIRECTION('center_axis',(0.,-1.,0.));
#770=DIRECTION('ref_axis',(1.,0.,0.));
#771=DIRECTION('center_axis',(0.,1.,0.));
#772=DIRECTION('ref_axis',(1.,0.,0.));
#773=DIRECTION('center_axis',(0.,-1.,0.));
#774=DIRECTION('ref_axis',(1.,0.,0.));
#775=DIRECTION('',(0.,-1.,0.));
#776=DIRECTION('center_axis',(0.,-1.,0.));
#777=DIRECTION('ref_axis',(1.,0.,0.));
#778=DIRECTION('center_axis',(0.,1.,0.));
#779=DIRECTION('ref_axis',(1.,0.,0.));
#780=DIRECTION('center_axis',(0.,-1.,0.));
#781=DIRECTION('ref_axis',(1.,0.,0.));
#782=DIRECTION('',(0.,-1.,0.));
#783=DIRECTION('center_axis',(0.,-1.,0.));
#784=DIRECTION('ref_axis',(1.,0.,0.));
#785=DIRECTION('center_axis',(0.,1.,0.));
#786=DIRECTION('ref_axis',(1.,0.,0.));
#787=DIRECTION('center_axis',(0.,-1.,0.));
#788=DIRECTION('ref_axis',(1.,0.,0.));
#789=DIRECTION('',(0.,-1.,0.));
#790=DIRECTION('center_axis',(0.,-1.,0.));
#791=DIRECTION('ref_axis',(1.,0.,0.));
#792=DIRECTION('center_axis',(0.,1.,0.));
#793=DIRECTION('ref_axis',(1.,0.,0.));
#794=DIRECTION('center_axis',(0.,-1.,0.));
#795=DIRECTION('ref_axis',(1.,0.,0.));
#796=DIRECTION('',(0.,-1.,0.));
#797=DIRECTION('center_axis',(0.,-1.,0.));
#798=DIRECTION('ref_axis',(1.,0.,0.));
#799=DIRECTION('center_axis',(0.,1.,0.));
#800=DIRECTION('ref_axis',(1.,0.,0.));
#801=DIRECTION('center_axis',(0.,-1.,0.));
#802=DIRECTION('ref_axis',(1.,0.,0.));
#803=DIRECTION('',(0.,-1.,0.));
#804=DIRECTION('center_axis',(0.,-1.,0.));
#805=DIRECTION('ref_axis',(1.,0.,0.));
#806=DIRECTION('center_axis',(0.,1.,0.));
#807=DIRECTION('ref_axis',(1.,0.,0.));
#808=DIRECTION('center_axis',(0.,-1.,0.));
#809=DIRECTION('ref_axis',(1.,0.,0.));
#810=DIRECTION('',(0.,-1.,0.));
#811=DIRECTION('center_axis',(0.,-1.,0.));
#812=DIRECTION('ref_axis',(1.,0.,0.));
#813=DIRECTION('center_axis',(0.,1.,0.));
#814=DIRECTION('ref_axis',(1.,0.,0.));
#815=DIRECTION('center_axis',(0.,-1.,0.));
#816=DIRECTION('ref_axis',(1.,0.,0.));
#817=DIRECTION('',(0.,-1.,0.));
#818=DIRECTION('center_axis',(0.,-1.,0.));
#819=DIRECTION('ref_axis',(1.,0.,0.));
#820=DIRECTION('center_axis',(0.,1.,0.));
#821=DIRECTION('ref_axis',(1.,0.,0.));
#822=DIRECTION('center_axis',(0.,-1.,0.));
#823=DIRECTION('ref_axis',(1.,0.,0.));
#824=DIRECTION('',(0.,-1.,0.));
#825=DIRECTION('center_axis',(0.,-1.,0.));
#826=DIRECTION('ref_axis',(1.,0.,0.));
#827=DIRECTION('center_axis',(0.,1.,0.));
#828=DIRECTION('ref_axis',(1.,0.,0.));
#829=DIRECTION('center_axis',(0.,-1.,0.));
#830=DIRECTION('ref_axis',(1.,0.,0.));
#831=DIRECTION('',(0.,-1.,0.));
#832=DIRECTION('center_axis',(0.,-1.,0.));
#833=DIRECTION('ref_axis',(1.,0.,0.));
#834=DIRECTION('center_axis',(0.,0.,1.));
#835=DIRECTION('ref_axis',(1.,0.,0.));
#836=DIRECTION('',(1.,0.,0.));
#837=DIRECTION('',(0.,1.,0.));
#838=DIRECTION('',(1.,0.,0.));
#839=DIRECTION('',(0.,1.,0.));
#840=DIRECTION('center_axis',(-1.,0.,0.));
#841=DIRECTION('ref_axis',(0.,0.,1.));
#842=DIRECTION('',(0.,0.,1.));
#843=DIRECTION('',(0.,0.,1.));
#844=DIRECTION('',(0.,1.,0.));
#845=DIRECTION('center_axis',(0.,0.,-1.));
#846=DIRECTION('ref_axis',(-1.,0.,0.));
#847=DIRECTION('',(-1.,0.,0.));
#848=DIRECTION('',(-1.,0.,0.));
#849=DIRECTION('',(0.,1.,0.));
#850=DIRECTION('center_axis',(1.,0.,2.368475785867E-16));
#851=DIRECTION('ref_axis',(2.368475785867E-16,0.,-1.));
#852=DIRECTION('',(2.368475785867E-16,0.,-1.));
#853=DIRECTION('',(2.368475785867E-16,0.,-1.));
#854=DIRECTION('center_axis',(0.,1.,0.));
#855=DIRECTION('ref_axis',(0.,0.,1.));
#856=DIRECTION('center_axis',(0.,1.,0.));
#857=DIRECTION('ref_axis',(0.,0.,1.));
#858=CARTESIAN_POINT('',(0.,0.,0.));
#859=CARTESIAN_POINT('Origin',(-93.9209697480321,1.5,-186.782408068548));
#860=CARTESIAN_POINT('',(-93.9209697480321,1.5,-181.917620363184));
#861=CARTESIAN_POINT('',(-93.9209697480321,1.5,-186.782408068548));
#862=CARTESIAN_POINT('',(-93.9209697480321,1.5,-185.940206892893));
#863=CARTESIAN_POINT('',(-93.9209697480321,2.2,-181.917620363184));
#864=CARTESIAN_POINT('',(-93.9209697480321,1.5,-181.917620363184));
#865=CARTESIAN_POINT('',(-93.9209697480321,2.2,-186.782408068548));
#866=CARTESIAN_POINT('',(-93.9209697480321,2.2,-186.782408068548));
#867=CARTESIAN_POINT('',(-93.9209697480321,1.5,-186.782408068548));
#868=CARTESIAN_POINT('Origin',(-89.1961758654619,1.5,-186.782408068548));
#869=CARTESIAN_POINT('',(-89.1961758654619,1.5,-186.782408068548));
#870=CARTESIAN_POINT('',(-90.5381873130226,1.5,-186.782408068548));
#871=CARTESIAN_POINT('',(-89.1961758654619,2.2,-186.782408068548));
#872=CARTESIAN_POINT('',(-89.1961758654619,2.2,-186.782408068548));
#873=CARTESIAN_POINT('',(-89.1961758654619,1.5,-186.782408068548));
#874=CARTESIAN_POINT('Origin',(-89.1961758654619,1.5,-181.917620363184));
#875=CARTESIAN_POINT('',(-89.1961758654619,1.5,-181.917620363184));
#876=CARTESIAN_POINT('',(-89.1961758654619,1.5,-183.507813040211));
#877=CARTESIAN_POINT('',(-89.1961758654619,2.2,-181.917620363184));
#878=CARTESIAN_POINT('',(-89.1961758654619,2.2,-181.917620363184));
#879=CARTESIAN_POINT('',(-89.1961758654619,1.5,-181.917620363184));
#880=CARTESIAN_POINT('Origin',(-93.9209697480321,1.5,-181.917620363184));
#881=CARTESIAN_POINT('',(-92.9005842543077,1.5,-181.917620363184));
#882=CARTESIAN_POINT('',(-93.9209697480321,2.2,-181.917620363184));
#883=CARTESIAN_POINT('Origin',(-91.558572806747,2.2,-184.350014215866));
#884=CARTESIAN_POINT('Origin',(-94.5159437925038,1.5,-177.612808221027));
#885=CARTESIAN_POINT('',(-94.5159437925038,1.5,-173.902970114779));
#886=CARTESIAN_POINT('',(-94.5159437925038,1.5,-177.612808221027));
#887=CARTESIAN_POINT('',(-94.5159437925038,1.5,-181.355406969133));
#888=CARTESIAN_POINT('',(-94.5159437925038,4.,-173.902970114779));
#889=CARTESIAN_POINT('',(-94.5159437925038,1.5,-173.902970114779));
#890=CARTESIAN_POINT('',(-94.5159437925038,4.,-177.612808221027));
#891=CARTESIAN_POINT('',(-94.5159437925038,4.,-177.612808221027));
#892=CARTESIAN_POINT('',(-94.5159437925038,1.5,-177.612808221027));
#893=CARTESIAN_POINT('Origin',(-89.1961758654619,1.5,-177.612808221027));
#894=CARTESIAN_POINT('',(-89.1961758654619,1.5,-177.612808221027));
#895=CARTESIAN_POINT('',(-90.5381873130226,1.5,-177.612808221027));
#896=CARTESIAN_POINT('',(-89.1961758654619,4.,-177.612808221027));
#897=CARTESIAN_POINT('',(-89.1961758654619,4.,-177.612808221027));
#898=CARTESIAN_POINT('',(-89.1961758654619,1.5,-177.612808221027));
#899=CARTESIAN_POINT('Origin',(-89.1961758654619,1.5,-173.902970114779));
#900=CARTESIAN_POINT('',(-89.1961758654619,1.5,-173.902970114779));
#901=CARTESIAN_POINT('',(-89.1961758654619,1.5,-179.500487916008));
#902=CARTESIAN_POINT('',(-89.1961758654619,4.,-173.902970114779));
#903=CARTESIAN_POINT('',(-89.1961758654619,4.,-173.902970114779));
#904=CARTESIAN_POINT('',(-89.1961758654619,1.5,-173.902970114779));
#905=CARTESIAN_POINT('Origin',(-94.5159437925038,1.5,-173.902970114779));
#906=CARTESIAN_POINT('',(-93.1980712765436,1.5,-173.902970114779));
#907=CARTESIAN_POINT('',(-94.5159437925038,4.,-173.902970114779));
#908=CARTESIAN_POINT('Origin',(-91.8560598289829,4.,-175.757889167903));
#909=CARTESIAN_POINT('Origin',(-91.7446563981776,0.,-195.329389899215));
#910=CARTESIAN_POINT('',(-93.4098312654575,1.5,-195.329389899215));
#911=CARTESIAN_POINT('Origin',(-91.7446563981776,1.5,-195.329389899215));
#912=CARTESIAN_POINT('',(-93.4098312654575,0.,-195.329389899215));
#913=CARTESIAN_POINT('',(-93.4098312654575,0.,-195.329389899215));
#914=CARTESIAN_POINT('Origin',(-91.7446563981776,0.,-195.329389899215));
#915=CARTESIAN_POINT('Origin',(-81.3351106187097,0.,-202.254733323948));
#916=CARTESIAN_POINT('',(-82.2574817138219,1.5,-202.254733323948));
#917=CARTESIAN_POINT('Origin',(-81.3351106187097,1.5,-202.254733323948));
#918=CARTESIAN_POINT('',(-82.2574817138219,0.,-202.254733323948));
#919=CARTESIAN_POINT('',(-82.2574817138219,0.,-202.254733323948));
#920=CARTESIAN_POINT('Origin',(-81.3351106187097,0.,-202.254733323948));
#921=CARTESIAN_POINT('Origin',(-86.438449043696,0.,-202.254733323948));
#922=CARTESIAN_POINT('',(-87.3603952816173,1.5,-202.254733323948));
#923=CARTESIAN_POINT('Origin',(-86.438449043696,1.5,-202.254733323948));
#924=CARTESIAN_POINT('',(-87.3603952816173,0.,-202.254733323948));
#925=CARTESIAN_POINT('',(-87.3603952816173,0.,-202.254733323948));
#926=CARTESIAN_POINT('Origin',(-86.438449043696,0.,-202.254733323948));
#927=CARTESIAN_POINT('Origin',(-102.420503430257,0.,-168.220526173224));
#928=CARTESIAN_POINT('',(-103.558924971987,1.5,-168.220526173224));
#929=CARTESIAN_POINT('Origin',(-102.420503430257,1.5,-168.220526173224));
#930=CARTESIAN_POINT('',(-103.558924971987,0.,-168.220526173224));
#931=CARTESIAN_POINT('',(-103.558924971987,0.,-168.220526173224));
#932=CARTESIAN_POINT('Origin',(-102.420503430257,0.,-168.220526173224));
#933=CARTESIAN_POINT('Origin',(-102.420503430257,0.,-201.802134895972));
#934=CARTESIAN_POINT('',(-103.421394132168,1.5,-201.802134895972));
#935=CARTESIAN_POINT('Origin',(-102.420503430257,1.5,-201.802134895972));
#936=CARTESIAN_POINT('',(-103.421394132168,0.,-201.802134895972));
#937=CARTESIAN_POINT('',(-103.421394132168,0.,-201.802134895972));
#938=CARTESIAN_POINT('Origin',(-102.420503430257,0.,-201.802134895972));
#939=CARTESIAN_POINT('Origin',(-81.1947174098593,0.,-168.220526173224));
#940=CARTESIAN_POINT('',(-82.3584920523365,1.5,-168.220526173224));
#941=CARTESIAN_POINT('Origin',(-81.1947174098593,1.5,-168.220526173224));
#942=CARTESIAN_POINT('',(-82.3584920523365,0.,-168.220526173224));
#943=CARTESIAN_POINT('',(-82.3584920523365,0.,-168.220526173224));
#944=CARTESIAN_POINT('Origin',(-81.1947174098593,0.,-168.220526173224));
#945=CARTESIAN_POINT('Origin',(-99.2997580703939,0.,-202.254733323948));
#946=CARTESIAN_POINT('',(-100.212434606755,1.5,-202.254733323948));
#947=CARTESIAN_POINT('Origin',(-99.2997580703939,1.5,-202.254733323948));
#948=CARTESIAN_POINT('',(-100.212434606755,0.,-202.254733323948));
#949=CARTESIAN_POINT('',(-100.212434606755,0.,-202.254733323948));
#950=CARTESIAN_POINT('Origin',(-99.2997580703939,0.,-202.254733323948));
#951=CARTESIAN_POINT('Origin',(-96.7710558272538,0.,-202.254733323948));
#952=CARTESIAN_POINT('',(-97.691107647906,1.5,-202.254733323948));
#953=CARTESIAN_POINT('Origin',(-96.7710558272538,1.5,-202.254733323948));
#954=CARTESIAN_POINT('',(-97.691107647906,0.,-202.254733323948));
#955=CARTESIAN_POINT('',(-97.691107647906,0.,-202.254733323948));
#956=CARTESIAN_POINT('Origin',(-96.7710558272538,0.,-202.254733323948));
#957=CARTESIAN_POINT('Origin',(-94.1696897164781,0.,-202.254733323948));
#958=CARTESIAN_POINT('',(-95.0902005303618,1.5,-202.254733323948));
#959=CARTESIAN_POINT('Origin',(-94.1696897164781,1.5,-202.254733323948));
#960=CARTESIAN_POINT('',(-95.0902005303618,0.,-202.254733323948));
#961=CARTESIAN_POINT('',(-95.0902005303618,0.,-202.254733323948));
#962=CARTESIAN_POINT('Origin',(-94.1696897164781,0.,-202.254733323948));
#963=CARTESIAN_POINT('Origin',(-91.5683236157764,0.,-202.254733323948));
#964=CARTESIAN_POINT('',(-92.4888344296601,1.5,-202.254733323948));
#965=CARTESIAN_POINT('Origin',(-91.5683236157764,1.5,-202.254733323948));
#966=CARTESIAN_POINT('',(-92.4888344296601,0.,-202.254733323948));
#967=CARTESIAN_POINT('',(-92.4888344296601,0.,-202.254733323948));
#968=CARTESIAN_POINT('Origin',(-91.5683236157764,0.,-202.254733323948));
#969=CARTESIAN_POINT('Origin',(-89.0143064048132,0.,-202.254733323948));
#970=CARTESIAN_POINT('',(-89.935104482518,1.5,-202.254733323948));
#971=CARTESIAN_POINT('Origin',(-89.0143064048132,1.5,-202.254733323948));
#972=CARTESIAN_POINT('',(-89.935104482518,0.,-202.254733323948));
#973=CARTESIAN_POINT('',(-89.935104482518,0.,-202.254733323948));
#974=CARTESIAN_POINT('Origin',(-89.0143064048132,0.,-202.254733323948));
#975=CARTESIAN_POINT('Origin',(-83.9139335687545,0.,-202.254733323948));
#976=CARTESIAN_POINT('',(-84.8359647937754,1.5,-202.254733323948));
#977=CARTESIAN_POINT('Origin',(-83.9139335687545,1.5,-202.254733323948));
#978=CARTESIAN_POINT('',(-84.8359647937754,0.,-202.254733323948));
#979=CARTESIAN_POINT('',(-84.8359647937754,0.,-202.254733323948));
#980=CARTESIAN_POINT('Origin',(-83.9139335687545,0.,-202.254733323948));
#981=CARTESIAN_POINT('Origin',(-98.6949795924063,0.,-175.541411376579));
#982=CARTESIAN_POINT('',(-100.251939737959,1.5,-175.541411376579));
#983=CARTESIAN_POINT('Origin',(-98.6949795924063,1.5,-175.541411376579));
#984=CARTESIAN_POINT('',(-100.251939737959,0.,-175.541411376579));
#985=CARTESIAN_POINT('',(-100.251939737959,0.,-175.541411376579));
#986=CARTESIAN_POINT('Origin',(-98.6949795924063,0.,-175.541411376579));
#987=CARTESIAN_POINT('Origin',(-84.8359647937754,0.,-175.450888775996));
#988=CARTESIAN_POINT('',(-86.5453405341844,1.5,-175.450888775996));
#989=CARTESIAN_POINT('Origin',(-84.8359647937754,1.5,-175.450888775996));
#990=CARTESIAN_POINT('',(-86.5453405341844,0.,-175.450888775996));
#991=CARTESIAN_POINT('',(-86.5453405341844,0.,-175.450888775996));
#992=CARTESIAN_POINT('Origin',(-84.8359647937754,0.,-175.450888775996));
#993=CARTESIAN_POINT('Origin',(-104.380199049947,0.,-166.348005717238));
#994=CARTESIAN_POINT('',(-104.380199049947,0.,-166.348005717238));
#995=CARTESIAN_POINT('',(-79.3801984712197,0.,-166.348005717238));
#996=CARTESIAN_POINT('',(-104.380199049947,0.,-166.348005717238));
#997=CARTESIAN_POINT('',(-79.3801984712197,1.5,-166.348005717238));
#998=CARTESIAN_POINT('',(-79.3801984712197,0.,-166.348005717238));
#999=CARTESIAN_POINT('',(-104.380199049947,1.5,-166.348005717238));
#1000=CARTESIAN_POINT('',(-104.380199049947,1.5,-166.348005717238));
#1001=CARTESIAN_POINT('',(-104.380199049947,0.,-166.348005717238));
#1002=CARTESIAN_POINT('Origin',(-104.380199049947,0.,-203.848005717238));
#1003=CARTESIAN_POINT('',(-104.380199049947,0.,-203.848005717238));
#1004=CARTESIAN_POINT('',(-104.380199049947,0.,-203.848005717238));
#1005=CARTESIAN_POINT('',(-104.380199049947,1.5,-203.848005717238));
#1006=CARTESIAN_POINT('',(-104.380199049947,1.5,-203.848005717238));
#1007=CARTESIAN_POINT('',(-104.380199049947,0.,-203.848005717238));
#1008=CARTESIAN_POINT('Origin',(-79.3801984712197,0.,-203.848005717238));
#1009=CARTESIAN_POINT('',(-79.3801984712197,0.,-203.848005717238));
#1010=CARTESIAN_POINT('',(-79.3801984712197,0.,-203.848005717238));
#1011=CARTESIAN_POINT('',(-79.3801984712197,1.5,-203.848005717238));
#1012=CARTESIAN_POINT('',(-79.3801984712197,1.5,-203.848005717238));
#1013=CARTESIAN_POINT('',(-79.3801984712197,0.,-203.848005717238));
#1014=CARTESIAN_POINT('Origin',(-79.3801984712197,0.,-166.348005717238));
#1015=CARTESIAN_POINT('',(-79.3801984712197,0.,-166.348005717238));
#1016=CARTESIAN_POINT('',(-79.3801984712197,1.5,-166.348005717238));
#1017=CARTESIAN_POINT('Origin',(-91.8801987605833,1.5,-185.098005717238));
#1018=CARTESIAN_POINT('Origin',(-91.8801987605833,0.,-185.098005717238));
#1019=UNCERTAINTY_MEASURE_WITH_UNIT(LENGTH_MEASURE(0.01),#1023,
'DISTANCE_ACCURACY_VALUE',
'Maximum model space distance between geometric entities at asserted c
onnectivities');
#1020=UNCERTAINTY_MEASURE_WITH_UNIT(LENGTH_MEASURE(0.01),#1023,
'DISTANCE_ACCURACY_VALUE',
'Maximum model space distance between geometric entities at asserted c
onnectivities');
#1021=(
GEOMETRIC_REPRESENTATION_CONTEXT(3)
GLOBAL_UNCERTAINTY_ASSIGNED_CONTEXT((#1019))
GLOBAL_UNIT_ASSIGNED_CONTEXT((#1023,#1025,#1026))
REPRESENTATION_CONTEXT('','3D')
);
#1022=(
GEOMETRIC_REPRESENTATION_CONTEXT(3)
GLOBAL_UNCERTAINTY_ASSIGNED_CONTEXT((#1020))
GLOBAL_UNIT_ASSIGNED_CONTEXT((#1023,#1025,#1026))
REPRESENTATION_CONTEXT('','3D')
);
#1023=(
LENGTH_UNIT()
NAMED_UNIT(*)
SI_UNIT(.MILLI.,.METRE.)
);
#1024=(
LENGTH_UNIT()
NAMED_UNIT(*)
SI_UNIT(.CENTI.,.METRE.)
);
#1025=(
NAMED_UNIT(*)
PLANE_ANGLE_UNIT()
SI_UNIT($,.RADIAN.)
);
#1026=(
NAMED_UNIT(*)
SI_UNIT($,.STERADIAN.)
SOLID_ANGLE_UNIT()
);
#1027=SHAPE_DEFINITION_REPRESENTATION(#1028,#1029);
#1028=PRODUCT_DEFINITION_SHAPE('',$,#1031);
#1029=SHAPE_REPRESENTATION('',(#631),#1021);
#1030=PRODUCT_DEFINITION_CONTEXT('part definition',#1035,'design');
#1031=PRODUCT_DEFINITION('RFID mini','RFID mini',#1032,#1030);
#1032=PRODUCT_DEFINITION_FORMATION('',$,#1037);
#1033=PRODUCT_RELATED_PRODUCT_CATEGORY('RFID mini','RFID mini',(#1037));
#1034=APPLICATION_PROTOCOL_DEFINITION('international standard',
'automotive_design',2009,#1035);
#1035=APPLICATION_CONTEXT(
'Core Data for Automotive Mechanical Design Process');
#1036=PRODUCT_CONTEXT('part definition',#1035,'mechanical');
#1037=PRODUCT('RFID mini','RFID mini',$,(#1036));
#1038=PRESENTATION_STYLE_ASSIGNMENT((#1039));
#1039=SURFACE_STYLE_USAGE(.BOTH.,#1042);
#1040=SURFACE_STYLE_RENDERING_WITH_PROPERTIES($,#1046,(#1041));
#1041=SURFACE_STYLE_TRANSPARENT(0.);
#1042=SURFACE_SIDE_STYLE('',(#1043,#1040));
#1043=SURFACE_STYLE_FILL_AREA(#1044);
#1044=FILL_AREA_STYLE('',(#1045));
#1045=FILL_AREA_STYLE_COLOUR('',#1046);
#1046=COLOUR_RGB('',0.749019607843137,0.749019607843137,0.749019607843137);
ENDSEC;
END-ISO-10303-21;
